STARTFONT 2.1
FONT -FontForge-Everyday_Standard-Book-R-Normal--6-60-75-75-P-48-ISO10646-1
SIZE 6 75 75
FONTBOUNDINGBOX 7 11 0 -2
COMMENT "Generated by fontforge, http://fontforge.sourceforge.net"
STARTPROPERTIES 38
FOUNDRY "FontForge"
FAMILY_NAME "Everyday_Standard"
WEIGHT_NAME "Book"
SLANT "R"
SETWIDTH_NAME "Normal"
ADD_STYLE_NAME ""
PIXEL_SIZE 6
POINT_SIZE 60
RESOLUTION_X 75
RESOLUTION_Y 75
SPACING "P"
AVERAGE_WIDTH 48
CHARSET_REGISTRY "ISO10646"
CHARSET_ENCODING "1"
FONTNAME_REGISTRY ""
CHARSET_COLLECTIONS "ISO10646-1"
FONT_NAME "Everyday_Standard"
FACE_NAME "Everyday_Standard Regular"
FONT_VERSION "1.0"
FONT_ASCENT 4
FONT_DESCENT 2
UNDERLINE_POSITION 0
UNDERLINE_THICKNESS 1
X_HEIGHT 4
CAP_HEIGHT 5
RAW_ASCENT 799
RAW_DESCENT 200
NORM_SPACE 5
RELATIVE_WEIGHT 40
RELATIVE_SETWIDTH 50
SUPERSCRIPT_X 0
SUPERSCRIPT_Y 3
SUPERSCRIPT_SIZE 3
SUBSCRIPT_X 0
SUBSCRIPT_Y -1
SUBSCRIPT_SIZE 3
AVG_LOWERCASE_WIDTH 49
AVG_UPPERCASE_WIDTH 52
ENDPROPERTIES
CHARS 165
STARTCHAR uni000D
ENCODING 13
SWIDTH 166 0
DWIDTH 1 0
BBX 1 1 0 0
BITMAP
00
ENDCHAR
STARTCHAR space
ENCODING 32
SWIDTH 833 0
DWIDTH 5 0
BBX 1 1 0 0
BITMAP
00
ENDCHAR
STARTCHAR exclam
ENCODING 33
SWIDTH 333 0
DWIDTH 2 0
BBX 1 6 0 0
BITMAP
80
80
80
80
00
80
ENDCHAR
STARTCHAR quotedbl
ENCODING 34
SWIDTH 666 0
DWIDTH 4 0
BBX 3 2 0 4
BITMAP
A0
A0
ENDCHAR
STARTCHAR numbersign
ENCODING 35
SWIDTH 1166 0
DWIDTH 7 0
BBX 6 6 0 0
BITMAP
48
FC
48
48
FC
48
ENDCHAR
STARTCHAR dollar
ENCODING 36
SWIDTH 833 0
DWIDTH 5 0
BBX 4 7 0 -1
BITMAP
20
70
A0
60
50
E0
40
ENDCHAR
STARTCHAR percent
ENCODING 37
SWIDTH 1000 0
DWIDTH 6 0
BBX 5 5 0 0
BITMAP
88
10
20
40
88
ENDCHAR
STARTCHAR ampersand
ENCODING 38
SWIDTH 1000 0
DWIDTH 6 0
BBX 5 6 0 0
BITMAP
40
A0
40
A8
90
60
ENDCHAR
STARTCHAR quotesingle
ENCODING 39
SWIDTH 333 0
DWIDTH 2 0
BBX 1 2 0 4
BITMAP
80
80
ENDCHAR
STARTCHAR parenleft
ENCODING 40
SWIDTH 666 0
DWIDTH 4 0
BBX 3 7 0 -1
BITMAP
20
40
80
80
80
40
20
ENDCHAR
STARTCHAR parenright
ENCODING 41
SWIDTH 666 0
DWIDTH 4 0
BBX 3 7 0 -1
BITMAP
80
40
20
20
20
40
80
ENDCHAR
STARTCHAR asterisk
ENCODING 42
SWIDTH 1000 0
DWIDTH 6 0
BBX 5 5 0 0
BITMAP
20
A8
70
A8
20
ENDCHAR
STARTCHAR plus
ENCODING 43
SWIDTH 1000 0
DWIDTH 6 0
BBX 5 5 0 0
BITMAP
20
20
F8
20
20
ENDCHAR
STARTCHAR comma
ENCODING 44
SWIDTH 500 0
DWIDTH 3 0
BBX 2 2 0 -1
BITMAP
40
80
ENDCHAR
STARTCHAR hyphen
ENCODING 45
SWIDTH 833 0
DWIDTH 5 0
BBX 4 1 0 2
BITMAP
F0
ENDCHAR
STARTCHAR period
ENCODING 46
SWIDTH 333 0
DWIDTH 2 0
BBX 1 1 0 0
BITMAP
80
ENDCHAR
STARTCHAR slash
ENCODING 47
SWIDTH 666 0
DWIDTH 4 0
BBX 3 6 0 0
BITMAP
20
20
40
40
80
80
ENDCHAR
STARTCHAR zero
ENCODING 48
SWIDTH 833 0
DWIDTH 5 0
BBX 4 6 0 0
BITMAP
60
90
B0
D0
90
60
ENDCHAR
STARTCHAR one
ENCODING 49
SWIDTH 500 0
DWIDTH 3 0
BBX 2 6 0 0
BITMAP
40
C0
40
40
40
40
ENDCHAR
STARTCHAR two
ENCODING 50
SWIDTH 833 0
DWIDTH 5 0
BBX 4 6 0 0
BITMAP
E0
10
60
80
80
F0
ENDCHAR
STARTCHAR three
ENCODING 51
SWIDTH 833 0
DWIDTH 5 0
BBX 4 6 0 0
BITMAP
E0
10
60
10
10
E0
ENDCHAR
STARTCHAR four
ENCODING 52
SWIDTH 833 0
DWIDTH 5 0
BBX 4 6 0 0
BITMAP
90
90
90
F0
10
10
ENDCHAR
STARTCHAR five
ENCODING 53
SWIDTH 833 0
DWIDTH 5 0
BBX 4 6 0 0
BITMAP
F0
80
E0
10
10
E0
ENDCHAR
STARTCHAR six
ENCODING 54
SWIDTH 833 0
DWIDTH 5 0
BBX 4 6 0 0
BITMAP
60
80
E0
90
90
60
ENDCHAR
STARTCHAR seven
ENCODING 55
SWIDTH 833 0
DWIDTH 5 0
BBX 4 6 0 0
BITMAP
F0
10
20
20
40
40
ENDCHAR
STARTCHAR eight
ENCODING 56
SWIDTH 833 0
DWIDTH 5 0
BBX 4 6 0 0
BITMAP
60
90
60
90
90
60
ENDCHAR
STARTCHAR nine
ENCODING 57
SWIDTH 833 0
DWIDTH 5 0
BBX 4 6 0 0
BITMAP
60
90
90
70
10
60
ENDCHAR
STARTCHAR colon
ENCODING 58
SWIDTH 333 0
DWIDTH 2 0
BBX 1 4 0 0
BITMAP
80
00
00
80
ENDCHAR
STARTCHAR semicolon
ENCODING 59
SWIDTH 500 0
DWIDTH 3 0
BBX 2 5 0 -1
BITMAP
40
00
00
40
80
ENDCHAR
STARTCHAR less
ENCODING 60
SWIDTH 666 0
DWIDTH 4 0
BBX 3 5 0 0
BITMAP
20
40
80
40
20
ENDCHAR
STARTCHAR equal
ENCODING 61
SWIDTH 833 0
DWIDTH 5 0
BBX 4 3 0 1
BITMAP
F0
00
F0
ENDCHAR
STARTCHAR greater
ENCODING 62
SWIDTH 666 0
DWIDTH 4 0
BBX 3 5 0 0
BITMAP
80
40
20
40
80
ENDCHAR
STARTCHAR question
ENCODING 63
SWIDTH 833 0
DWIDTH 5 0
BBX 4 6 0 0
BITMAP
E0
10
10
60
00
40
ENDCHAR
STARTCHAR at
ENCODING 64
SWIDTH 1000 0
DWIDTH 6 0
BBX 5 6 0 0
BITMAP
70
88
A8
B8
80
70
ENDCHAR
STARTCHAR A
ENCODING 65
SWIDTH 833 0
DWIDTH 5 0
BBX 4 6 0 0
BITMAP
60
90
90
F0
90
90
ENDCHAR
STARTCHAR B
ENCODING 66
SWIDTH 833 0
DWIDTH 5 0
BBX 4 6 0 0
BITMAP
E0
90
E0
90
90
E0
ENDCHAR
STARTCHAR C
ENCODING 67
SWIDTH 833 0
DWIDTH 5 0
BBX 4 6 0 0
BITMAP
60
90
80
80
90
60
ENDCHAR
STARTCHAR D
ENCODING 68
SWIDTH 833 0
DWIDTH 5 0
BBX 4 6 0 0
BITMAP
E0
90
90
90
90
E0
ENDCHAR
STARTCHAR E
ENCODING 69
SWIDTH 833 0
DWIDTH 5 0
BBX 4 6 0 0
BITMAP
F0
80
E0
80
80
F0
ENDCHAR
STARTCHAR F
ENCODING 70
SWIDTH 833 0
DWIDTH 5 0
BBX 4 6 0 0
BITMAP
F0
80
E0
80
80
80
ENDCHAR
STARTCHAR G
ENCODING 71
SWIDTH 833 0
DWIDTH 5 0
BBX 4 6 0 0
BITMAP
70
80
B0
90
90
60
ENDCHAR
STARTCHAR H
ENCODING 72
SWIDTH 833 0
DWIDTH 5 0
BBX 4 6 0 0
BITMAP
90
90
90
F0
90
90
ENDCHAR
STARTCHAR I
ENCODING 73
SWIDTH 666 0
DWIDTH 4 0
BBX 3 6 0 0
BITMAP
E0
40
40
40
40
E0
ENDCHAR
STARTCHAR J
ENCODING 74
SWIDTH 833 0
DWIDTH 5 0
BBX 4 6 0 0
BITMAP
70
10
10
10
90
60
ENDCHAR
STARTCHAR K
ENCODING 75
SWIDTH 833 0
DWIDTH 5 0
BBX 4 6 0 0
BITMAP
90
90
E0
90
90
90
ENDCHAR
STARTCHAR L
ENCODING 76
SWIDTH 833 0
DWIDTH 5 0
BBX 4 6 0 0
BITMAP
80
80
80
80
80
70
ENDCHAR
STARTCHAR M
ENCODING 77
SWIDTH 1333 0
DWIDTH 8 0
BBX 7 6 0 0
BITMAP
FC
92
92
92
92
82
ENDCHAR
STARTCHAR N
ENCODING 78
SWIDTH 833 0
DWIDTH 5 0
BBX 4 6 0 0
BITMAP
E0
90
90
90
90
90
ENDCHAR
STARTCHAR O
ENCODING 79
SWIDTH 833 0
DWIDTH 5 0
BBX 4 6 0 0
BITMAP
60
90
90
90
90
60
ENDCHAR
STARTCHAR P
ENCODING 80
SWIDTH 833 0
DWIDTH 5 0
BBX 4 6 0 0
BITMAP
E0
90
90
90
E0
80
ENDCHAR
STARTCHAR Q
ENCODING 81
SWIDTH 1000 0
DWIDTH 6 0
BBX 5 6 0 0
BITMAP
60
90
90
90
90
78
ENDCHAR
STARTCHAR R
ENCODING 82
SWIDTH 833 0
DWIDTH 5 0
BBX 4 6 0 0
BITMAP
E0
90
90
E0
90
90
ENDCHAR
STARTCHAR S
ENCODING 83
SWIDTH 833 0
DWIDTH 5 0
BBX 4 6 0 0
BITMAP
70
80
60
10
10
E0
ENDCHAR
STARTCHAR T
ENCODING 84
SWIDTH 1000 0
DWIDTH 6 0
BBX 5 6 0 0
BITMAP
F8
20
20
20
20
20
ENDCHAR
STARTCHAR U
ENCODING 85
SWIDTH 833 0
DWIDTH 5 0
BBX 4 6 0 0
BITMAP
90
90
90
90
90
70
ENDCHAR
STARTCHAR V
ENCODING 86
SWIDTH 833 0
DWIDTH 5 0
BBX 4 6 0 0
BITMAP
90
90
90
90
A0
40
ENDCHAR
STARTCHAR W
ENCODING 87
SWIDTH 1333 0
DWIDTH 8 0
BBX 7 6 0 0
BITMAP
82
92
92
92
92
6C
ENDCHAR
STARTCHAR X
ENCODING 88
SWIDTH 833 0
DWIDTH 5 0
BBX 4 6 0 0
BITMAP
90
90
90
60
90
90
ENDCHAR
STARTCHAR Y
ENCODING 89
SWIDTH 1000 0
DWIDTH 6 0
BBX 5 6 0 0
BITMAP
88
88
50
20
20
20
ENDCHAR
STARTCHAR Z
ENCODING 90
SWIDTH 833 0
DWIDTH 5 0
BBX 4 6 0 0
BITMAP
F0
10
20
40
80
F0
ENDCHAR
STARTCHAR bracketleft
ENCODING 91
SWIDTH 666 0
DWIDTH 4 0
BBX 3 7 0 -1
BITMAP
E0
80
80
80
80
80
E0
ENDCHAR
STARTCHAR backslash
ENCODING 92
SWIDTH 666 0
DWIDTH 4 0
BBX 3 6 0 0
BITMAP
80
80
40
40
20
20
ENDCHAR
STARTCHAR bracketright
ENCODING 93
SWIDTH 666 0
DWIDTH 4 0
BBX 3 7 0 -1
BITMAP
E0
20
20
20
20
20
E0
ENDCHAR
STARTCHAR asciicircum
ENCODING 94
SWIDTH 1000 0
DWIDTH 6 0
BBX 5 3 0 3
BITMAP
20
50
88
ENDCHAR
STARTCHAR underscore
ENCODING 95
SWIDTH 1166 0
DWIDTH 7 0
BBX 6 1 0 0
BITMAP
FC
ENDCHAR
STARTCHAR grave
ENCODING 96
SWIDTH 500 0
DWIDTH 3 0
BBX 2 2 0 4
BITMAP
80
40
ENDCHAR
STARTCHAR a
ENCODING 97
SWIDTH 833 0
DWIDTH 5 0
BBX 4 5 0 0
BITMAP
60
10
70
90
70
ENDCHAR
STARTCHAR b
ENCODING 98
SWIDTH 833 0
DWIDTH 5 0
BBX 4 6 0 0
BITMAP
80
E0
90
90
90
E0
ENDCHAR
STARTCHAR c
ENCODING 99
SWIDTH 833 0
DWIDTH 5 0
BBX 4 5 0 0
BITMAP
60
80
80
80
70
ENDCHAR
STARTCHAR d
ENCODING 100
SWIDTH 833 0
DWIDTH 5 0
BBX 4 6 0 0
BITMAP
10
70
90
90
90
70
ENDCHAR
STARTCHAR e
ENCODING 101
SWIDTH 833 0
DWIDTH 5 0
BBX 4 5 0 0
BITMAP
60
90
F0
80
70
ENDCHAR
STARTCHAR f
ENCODING 102
SWIDTH 666 0
DWIDTH 4 0
BBX 3 6 0 0
BITMAP
60
80
80
C0
80
80
ENDCHAR
STARTCHAR g
ENCODING 103
SWIDTH 833 0
DWIDTH 5 0
BBX 4 7 0 -2
BITMAP
60
90
90
90
70
10
60
ENDCHAR
STARTCHAR h
ENCODING 104
SWIDTH 833 0
DWIDTH 5 0
BBX 4 6 0 0
BITMAP
80
E0
90
90
90
90
ENDCHAR
STARTCHAR i
ENCODING 105
SWIDTH 333 0
DWIDTH 2 0
BBX 1 6 0 0
BITMAP
80
00
80
80
80
80
ENDCHAR
STARTCHAR j
ENCODING 106
SWIDTH 666 0
DWIDTH 4 0
BBX 3 8 0 -2
BITMAP
20
00
20
20
20
20
20
C0
ENDCHAR
STARTCHAR k
ENCODING 107
SWIDTH 833 0
DWIDTH 5 0
BBX 4 6 0 0
BITMAP
80
90
90
E0
90
90
ENDCHAR
STARTCHAR l
ENCODING 108
SWIDTH 500 0
DWIDTH 3 0
BBX 2 6 0 0
BITMAP
80
80
80
80
80
40
ENDCHAR
STARTCHAR m
ENCODING 109
SWIDTH 1333 0
DWIDTH 8 0
BBX 7 5 0 0
BITMAP
6C
92
92
92
82
ENDCHAR
STARTCHAR n
ENCODING 110
SWIDTH 833 0
DWIDTH 5 0
BBX 4 5 0 0
BITMAP
60
90
90
90
90
ENDCHAR
STARTCHAR o
ENCODING 111
SWIDTH 833 0
DWIDTH 5 0
BBX 4 5 0 0
BITMAP
60
90
90
90
60
ENDCHAR
STARTCHAR p
ENCODING 112
SWIDTH 833 0
DWIDTH 5 0
BBX 4 7 0 -2
BITMAP
60
90
90
90
E0
80
80
ENDCHAR
STARTCHAR q
ENCODING 113
SWIDTH 833 0
DWIDTH 5 0
BBX 4 7 0 -2
BITMAP
60
90
90
90
70
10
10
ENDCHAR
STARTCHAR r
ENCODING 114
SWIDTH 666 0
DWIDTH 4 0
BBX 3 5 0 0
BITMAP
60
80
80
80
80
ENDCHAR
STARTCHAR s
ENCODING 115
SWIDTH 833 0
DWIDTH 5 0
BBX 4 5 0 0
BITMAP
70
80
60
10
E0
ENDCHAR
STARTCHAR t
ENCODING 116
SWIDTH 666 0
DWIDTH 4 0
BBX 3 6 0 0
BITMAP
80
C0
80
80
80
60
ENDCHAR
STARTCHAR u
ENCODING 117
SWIDTH 833 0
DWIDTH 5 0
BBX 4 5 0 0
BITMAP
90
90
90
90
60
ENDCHAR
STARTCHAR v
ENCODING 118
SWIDTH 833 0
DWIDTH 5 0
BBX 4 5 0 0
BITMAP
90
90
90
A0
40
ENDCHAR
STARTCHAR w
ENCODING 119
SWIDTH 1333 0
DWIDTH 8 0
BBX 7 5 0 0
BITMAP
82
92
92
92
6C
ENDCHAR
STARTCHAR x
ENCODING 120
SWIDTH 833 0
DWIDTH 5 0
BBX 4 5 0 0
BITMAP
90
90
60
90
90
ENDCHAR
STARTCHAR y
ENCODING 121
SWIDTH 833 0
DWIDTH 5 0
BBX 4 7 0 -2
BITMAP
90
90
90
90
70
10
E0
ENDCHAR
STARTCHAR z
ENCODING 122
SWIDTH 833 0
DWIDTH 5 0
BBX 4 5 0 0
BITMAP
F0
20
40
80
F0
ENDCHAR
STARTCHAR braceleft
ENCODING 123
SWIDTH 666 0
DWIDTH 4 0
BBX 3 7 0 -1
BITMAP
20
40
40
80
40
40
20
ENDCHAR
STARTCHAR bar
ENCODING 124
SWIDTH 333 0
DWIDTH 2 0
BBX 1 7 0 -1
BITMAP
80
80
80
80
80
80
80
ENDCHAR
STARTCHAR braceright
ENCODING 125
SWIDTH 666 0
DWIDTH 4 0
BBX 3 7 0 -1
BITMAP
80
40
40
20
40
40
80
ENDCHAR
STARTCHAR asciitilde
ENCODING 126
SWIDTH 1000 0
DWIDTH 6 0
BBX 5 3 0 3
BITMAP
48
A8
90
ENDCHAR
STARTCHAR exclamdown
ENCODING 161
SWIDTH 333 0
DWIDTH 2 0
BBX 1 6 0 0
BITMAP
80
00
80
80
80
80
ENDCHAR
STARTCHAR questiondown
ENCODING 191
SWIDTH 833 0
DWIDTH 5 0
BBX 4 6 0 0
BITMAP
20
00
60
80
80
70
ENDCHAR
STARTCHAR Agrave
ENCODING 192
SWIDTH 833 0
DWIDTH 5 0
BBX 4 9 0 0
BITMAP
40
20
00
60
90
90
F0
90
90
ENDCHAR
STARTCHAR Aacute
ENCODING 193
SWIDTH 833 0
DWIDTH 5 0
BBX 4 9 0 0
BITMAP
20
40
00
60
90
90
F0
90
90
ENDCHAR
STARTCHAR Acircumflex
ENCODING 194
SWIDTH 833 0
DWIDTH 5 0
BBX 4 9 0 0
BITMAP
20
50
00
60
90
90
F0
90
90
ENDCHAR
STARTCHAR Atilde
ENCODING 195
SWIDTH 833 0
DWIDTH 5 0
BBX 4 9 0 0
BITMAP
50
A0
00
60
90
90
F0
90
90
ENDCHAR
STARTCHAR Adieresis
ENCODING 196
SWIDTH 833 0
DWIDTH 5 0
BBX 4 8 0 0
BITMAP
90
00
60
90
90
F0
90
90
ENDCHAR
STARTCHAR Aring
ENCODING 197
SWIDTH 833 0
DWIDTH 5 0
BBX 4 9 0 0
BITMAP
20
50
20
60
90
90
F0
90
90
ENDCHAR
STARTCHAR AE
ENCODING 198
SWIDTH 1333 0
DWIDTH 8 0
BBX 7 6 0 0
BITMAP
7E
90
9C
F0
90
9E
ENDCHAR
STARTCHAR Ccedilla
ENCODING 199
SWIDTH 833 0
DWIDTH 5 0
BBX 4 7 0 -1
BITMAP
60
90
80
80
90
60
40
ENDCHAR
STARTCHAR Egrave
ENCODING 200
SWIDTH 833 0
DWIDTH 5 0
BBX 4 9 0 0
BITMAP
40
20
00
F0
80
E0
80
80
F0
ENDCHAR
STARTCHAR Eacute
ENCODING 201
SWIDTH 833 0
DWIDTH 5 0
BBX 4 9 0 0
BITMAP
20
40
00
F0
80
E0
80
80
F0
ENDCHAR
STARTCHAR Ecircumflex
ENCODING 202
SWIDTH 833 0
DWIDTH 5 0
BBX 4 9 0 0
BITMAP
20
50
00
F0
80
E0
80
80
F0
ENDCHAR
STARTCHAR Edieresis
ENCODING 203
SWIDTH 833 0
DWIDTH 5 0
BBX 4 8 0 0
BITMAP
90
00
F0
80
E0
80
80
F0
ENDCHAR
STARTCHAR Igrave
ENCODING 204
SWIDTH 666 0
DWIDTH 4 0
BBX 3 9 0 0
BITMAP
40
20
00
E0
40
40
40
40
E0
ENDCHAR
STARTCHAR Iacute
ENCODING 205
SWIDTH 666 0
DWIDTH 4 0
BBX 3 9 0 0
BITMAP
20
40
00
E0
40
40
40
40
E0
ENDCHAR
STARTCHAR Icircumflex
ENCODING 206
SWIDTH 666 0
DWIDTH 4 0
BBX 3 9 0 0
BITMAP
40
A0
00
E0
40
40
40
40
E0
ENDCHAR
STARTCHAR Idieresis
ENCODING 207
SWIDTH 666 0
DWIDTH 4 0
BBX 3 8 0 0
BITMAP
A0
00
E0
40
40
40
40
E0
ENDCHAR
STARTCHAR Eth
ENCODING 208
SWIDTH 1000 0
DWIDTH 6 0
BBX 5 6 0 0
BITMAP
70
48
48
E8
48
70
ENDCHAR
STARTCHAR Ntilde
ENCODING 209
SWIDTH 833 0
DWIDTH 5 0
BBX 4 9 0 0
BITMAP
50
A0
00
E0
90
90
90
90
90
ENDCHAR
STARTCHAR Ograve
ENCODING 210
SWIDTH 833 0
DWIDTH 5 0
BBX 4 9 0 0
BITMAP
40
20
00
60
90
90
90
90
60
ENDCHAR
STARTCHAR Oacute
ENCODING 211
SWIDTH 833 0
DWIDTH 5 0
BBX 4 9 0 0
BITMAP
20
40
00
60
90
90
90
90
60
ENDCHAR
STARTCHAR Ocircumflex
ENCODING 212
SWIDTH 833 0
DWIDTH 5 0
BBX 4 9 0 0
BITMAP
20
50
00
60
90
90
90
90
60
ENDCHAR
STARTCHAR Otilde
ENCODING 213
SWIDTH 833 0
DWIDTH 5 0
BBX 4 9 0 0
BITMAP
50
A0
00
60
90
90
90
90
60
ENDCHAR
STARTCHAR Odieresis
ENCODING 214
SWIDTH 833 0
DWIDTH 5 0
BBX 4 8 0 0
BITMAP
90
00
60
90
90
90
90
60
ENDCHAR
STARTCHAR Ugrave
ENCODING 217
SWIDTH 833 0
DWIDTH 5 0
BBX 4 9 0 0
BITMAP
40
20
00
90
90
90
90
90
70
ENDCHAR
STARTCHAR Uacute
ENCODING 218
SWIDTH 833 0
DWIDTH 5 0
BBX 4 9 0 0
BITMAP
20
40
00
90
90
90
90
90
70
ENDCHAR
STARTCHAR Ucircumflex
ENCODING 219
SWIDTH 833 0
DWIDTH 5 0
BBX 4 9 0 0
BITMAP
20
50
00
90
90
90
90
90
70
ENDCHAR
STARTCHAR Udieresis
ENCODING 220
SWIDTH 833 0
DWIDTH 5 0
BBX 4 8 0 0
BITMAP
90
00
90
90
90
90
90
70
ENDCHAR
STARTCHAR Yacute
ENCODING 221
SWIDTH 1000 0
DWIDTH 6 0
BBX 5 9 0 0
BITMAP
10
20
00
88
88
50
20
20
20
ENDCHAR
STARTCHAR Thorn
ENCODING 222
SWIDTH 833 0
DWIDTH 5 0
BBX 4 7 0 -1
BITMAP
80
E0
90
90
90
E0
80
ENDCHAR
STARTCHAR germandbls
ENCODING 223
SWIDTH 833 0
DWIDTH 5 0
BBX 4 6 0 0
BITMAP
60
90
A0
90
90
A0
ENDCHAR
STARTCHAR agrave
ENCODING 224
SWIDTH 833 0
DWIDTH 5 0
BBX 4 8 0 0
BITMAP
40
20
00
60
10
70
90
70
ENDCHAR
STARTCHAR aacute
ENCODING 225
SWIDTH 833 0
DWIDTH 5 0
BBX 4 8 0 0
BITMAP
20
40
00
60
10
70
90
70
ENDCHAR
STARTCHAR acircumflex
ENCODING 226
SWIDTH 833 0
DWIDTH 5 0
BBX 4 8 0 0
BITMAP
20
50
00
60
10
70
90
70
ENDCHAR
STARTCHAR atilde
ENCODING 227
SWIDTH 833 0
DWIDTH 5 0
BBX 4 8 0 0
BITMAP
50
A0
00
60
10
70
90
70
ENDCHAR
STARTCHAR adieresis
ENCODING 228
SWIDTH 833 0
DWIDTH 5 0
BBX 4 7 0 0
BITMAP
90
00
60
10
70
90
70
ENDCHAR
STARTCHAR aring
ENCODING 229
SWIDTH 833 0
DWIDTH 5 0
BBX 4 9 0 0
BITMAP
20
50
20
00
60
10
70
90
70
ENDCHAR
STARTCHAR ae
ENCODING 230
SWIDTH 1333 0
DWIDTH 8 0
BBX 7 5 0 0
BITMAP
6C
12
7E
90
7E
ENDCHAR
STARTCHAR ccedilla
ENCODING 231
SWIDTH 833 0
DWIDTH 5 0
BBX 4 6 0 -1
BITMAP
60
80
80
80
70
40
ENDCHAR
STARTCHAR egrave
ENCODING 232
SWIDTH 833 0
DWIDTH 5 0
BBX 4 8 0 0
BITMAP
40
20
00
60
90
F0
80
70
ENDCHAR
STARTCHAR eacute
ENCODING 233
SWIDTH 833 0
DWIDTH 5 0
BBX 4 8 0 0
BITMAP
20
40
00
60
90
F0
80
70
ENDCHAR
STARTCHAR ecircumflex
ENCODING 234
SWIDTH 833 0
DWIDTH 5 0
BBX 4 8 0 0
BITMAP
20
50
00
60
90
F0
80
70
ENDCHAR
STARTCHAR edieresis
ENCODING 235
SWIDTH 833 0
DWIDTH 5 0
BBX 4 7 0 0
BITMAP
90
00
60
90
F0
80
70
ENDCHAR
STARTCHAR igrave
ENCODING 236
SWIDTH 500 0
DWIDTH 3 0
BBX 2 7 0 0
BITMAP
80
40
00
80
80
80
80
ENDCHAR
STARTCHAR iacute
ENCODING 237
SWIDTH 500 0
DWIDTH 3 0
BBX 2 7 0 0
BITMAP
40
80
00
80
80
80
80
ENDCHAR
STARTCHAR icircumflex
ENCODING 238
SWIDTH 666 0
DWIDTH 4 0
BBX 3 7 0 0
BITMAP
40
A0
00
40
40
40
40
ENDCHAR
STARTCHAR idieresis
ENCODING 239
SWIDTH 666 0
DWIDTH 4 0
BBX 3 6 0 0
BITMAP
A0
00
40
40
40
40
ENDCHAR
STARTCHAR eth
ENCODING 240
SWIDTH 1000 0
DWIDTH 6 0
BBX 5 6 0 0
BITMAP
10
70
98
90
90
70
ENDCHAR
STARTCHAR ntilde
ENCODING 241
SWIDTH 833 0
DWIDTH 5 0
BBX 4 8 0 0
BITMAP
50
A0
00
60
90
90
90
90
ENDCHAR
STARTCHAR ograve
ENCODING 242
SWIDTH 833 0
DWIDTH 5 0
BBX 4 8 0 0
BITMAP
40
20
00
60
90
90
90
60
ENDCHAR
STARTCHAR oacute
ENCODING 243
SWIDTH 833 0
DWIDTH 5 0
BBX 4 8 0 0
BITMAP
20
40
00
60
90
90
90
60
ENDCHAR
STARTCHAR ocircumflex
ENCODING 244
SWIDTH 833 0
DWIDTH 5 0
BBX 4 8 0 0
BITMAP
20
50
00
60
90
90
90
60
ENDCHAR
STARTCHAR otilde
ENCODING 245
SWIDTH 833 0
DWIDTH 5 0
BBX 4 8 0 0
BITMAP
50
A0
00
60
90
90
90
60
ENDCHAR
STARTCHAR odieresis
ENCODING 246
SWIDTH 833 0
DWIDTH 5 0
BBX 4 7 0 0
BITMAP
90
00
60
90
90
90
60
ENDCHAR
STARTCHAR ugrave
ENCODING 249
SWIDTH 833 0
DWIDTH 5 0
BBX 4 8 0 0
BITMAP
40
20
00
90
90
90
90
60
ENDCHAR
STARTCHAR uacute
ENCODING 250
SWIDTH 833 0
DWIDTH 5 0
BBX 4 8 0 0
BITMAP
20
40
00
90
90
90
90
60
ENDCHAR
STARTCHAR ucircumflex
ENCODING 251
SWIDTH 833 0
DWIDTH 5 0
BBX 4 8 0 0
BITMAP
20
50
00
90
90
90
90
60
ENDCHAR
STARTCHAR udieresis
ENCODING 252
SWIDTH 833 0
DWIDTH 5 0
BBX 4 7 0 0
BITMAP
90
00
90
90
90
90
60
ENDCHAR
STARTCHAR yacute
ENCODING 253
SWIDTH 833 0
DWIDTH 5 0
BBX 4 10 0 -2
BITMAP
20
40
00
90
90
90
90
70
10
E0
ENDCHAR
STARTCHAR thorn
ENCODING 254
SWIDTH 1000 0
DWIDTH 6 0
BBX 5 7 0 -1
BITMAP
80
F0
88
88
88
F0
80
ENDCHAR
STARTCHAR ydieresis
ENCODING 255
SWIDTH 833 0
DWIDTH 5 0
BBX 4 9 0 -2
BITMAP
90
00
90
90
90
90
70
10
E0
ENDCHAR
STARTCHAR OE
ENCODING 338
SWIDTH 1333 0
DWIDTH 8 0
BBX 7 6 0 0
BITMAP
7E
90
9C
90
90
7E
ENDCHAR
STARTCHAR oe
ENCODING 339
SWIDTH 1333 0
DWIDTH 8 0
BBX 7 5 0 0
BITMAP
6C
92
9E
90
6E
ENDCHAR
STARTCHAR Ydieresis
ENCODING 376
SWIDTH 1000 0
DWIDTH 6 0
BBX 5 8 0 0
BITMAP
88
00
88
88
50
20
20
20
ENDCHAR
STARTCHAR Ygrave
ENCODING 7922
SWIDTH 1000 0
DWIDTH 6 0
BBX 5 9 0 0
BITMAP
40
20
00
88
88
50
20
20
20
ENDCHAR
STARTCHAR ygrave
ENCODING 7923
SWIDTH 833 0
DWIDTH 5 0
BBX 4 10 0 -2
BITMAP
40
20
00
90
90
90
90
70
10
E0
ENDCHAR
STARTCHAR uni220E
ENCODING 8718
SWIDTH 833 0
DWIDTH 5 0
BBX 4 6 0 0
BITMAP
F0
F0
F0
F0
F0
F0
ENDCHAR
STARTCHAR .notdef
ENCODING -1
SWIDTH 166 0
DWIDTH 1 0
BBX 1 1 0 0
BITMAP
00
ENDCHAR
ENDFONT
